<?xml version="1.0" encoding="utf-8"?>
<!-- Generator: Adobe Illustrator 23.0.0, SVG Export Plug-In . SVG Version: 6.00 Build 0)  -->
<svg version="1.1" id="Capa_1" xmlns="http://www.w3.org/2000/svg" xmlns:xlink="http://www.w3.org/1999/xlink" x="0px" y="0px"
	 viewBox="0 0 512 512" style="enable-background:new 0 0 512 512;" xml:space="preserve">
<style type="text/css">
	.st0{fill:#165C8D;}
</style>
<g>
	<g>
		<g>
			<path class="st0" d="M186.7,149.3H224c5.9,0,10.7-4.8,10.7-10.7s-4.8-10.7-10.7-10.7h-21.3v-10.7c0-5.9-4.8-10.7-10.7-10.7
				s-10.7,4.8-10.7,10.7v11.2c-18,2.6-32,18-32,36.8c0,20.6,16.8,37.3,37.3,37.3h10.7c8.8,0,16,7.2,16,16s-7.2,16-16,16H160
				c-5.9,0-10.7,4.8-10.7,10.7S154.1,256,160,256h10.7v10.7c0,5.9,4.8,10.7,10.7,10.7s10.7-4.8,10.7-10.7V256h5.3
				c20.6,0,37.3-16.8,37.3-37.3s-16.8-37.3-37.3-37.3h-10.7c-8.8,0-16-7.2-16-16C170.7,156.5,177.9,149.3,186.7,149.3z"/>
			<path class="st0" d="M487.1,386.7L347.6,261.1c9.8-22,15.1-45.1,15.1-69.2c0-94.1-76.6-170.7-170.7-170.7S21.3,97.9,21.3,192
				S97.9,362.7,192,362.7c21.9,0,43.7-4.5,64-12.7v130c0,4.3,2.6,8.2,6.6,9.9c4,1.7,8.6,0.8,11.6-2.3l54.9-55.1l28.3,52.6
				c1.9,3.6,5.6,5.6,9.4,5.6c1.6,0,3.3-0.4,4.8-1.1l50.1-25.1c2.6-1.3,4.6-3.6,5.4-6.4s0.6-5.8-0.8-8.3l-24.5-44.4H480
				c4.4,0,8.4-2.7,10-6.8S490.4,389.7,487.1,386.7z M256,326.6c-20,9.5-41.9,14.7-64,14.7c-82.3,0-149.3-67-149.3-149.3
				S109.7,42.7,192,42.7s149.3,67,149.3,149.3c0,18.7-3.6,36.8-10.4,54.1l-17.4-15.7c4-12.6,6.5-25.4,6.5-38.5
				c0-70.6-57.4-128-128-128S64,121.4,64,192s57.4,128,128,128c22.6,0,44.6-6.1,64-17.2V326.6L256,326.6z M273.8,194.7
				c-3.1-2.8-7.6-3.5-11.5-1.8s-6.3,5.5-6.3,9.7v74.3c-18.4,13.9-40.9,21.7-64,21.7c-58.8,0-106.7-47.9-106.7-106.7
				S133.2,85.3,192,85.3S298.7,133.2,298.7,192c0,7.6-1.1,15.2-2.8,22.6L273.8,194.7z M383.7,384c-3.8,0-7.3,2-9.2,5.2
				s-2,7.3-0.2,10.6l27.8,50.5l-30.9,15.5l-30.1-56.1c-1.6-3-4.5-5-7.9-5.5c-0.5-0.1-1-0.1-1.5-0.1c-2.8,0-5.5,1.1-7.5,3.1l-46.9,47
				V226.6L452.2,384H383.7L383.7,384z"/>
		</g>
	</g>
</g>
</svg>
